<svg xmlns="http://www.w3.org/2000/svg" xmlns:xlink="http://www.w3.org/1999/xlink" viewBox="0 0 228.04 61.78"><defs><style>.a{fill:none;}.b{fill:#151e37;}.c{fill:#b81548;}.d{clip-path:url(#a);}.e{clip-path:url(#b);}.f{fill:url(#c);}.g{clip-path:url(#d);}.h{clip-path:url(#e);}.i{fill:url(#f);}</style><clipPath id="a" transform="translate(-6.89)"><rect class="a" x="84.88" y="10.28" width="36.17" height="15.54"/></clipPath><clipPath id="b" transform="translate(-6.89)"><path class="a" d="M103.08,25,92.47,12.75s-1.21-1.57,1.06-1.63,7.52,0,7.52,0a3.55,3.55,0,0,1,2.41,1.06C104.84,13.55,113.79,25,113.79,25Z"/></clipPath><linearGradient id="c" x1="-25.72" y1="482.95" x2="-24.91" y2="482.95" gradientTransform="matrix(0.01, -22.84, -22.84, -0.01, 11132.69, -560.68)" gradientUnits="userSpaceOnUse"><stop offset="0" stop-color="#b71548"/><stop offset="0.99" stop-color="#d07680"/><stop offset="1" stop-color="#d07680"/></linearGradient><clipPath id="d" transform="translate(-6.89)"><rect class="a" x="77.03" y="24.22" width="44.03" height="23.96"/></clipPath><clipPath id="e" transform="translate(-6.89)"><path class="a" d="M113.79,25,95.47,46.3a4.57,4.57,0,0,1-3.34,1.06h-7a1,1,0,0,1-.75-.42c-.22-.31-.23-.76.32-1.5C85.82,44,102.31,25,102.31,25Z"/></clipPath><linearGradient id="f" x1="-24.45" y1="506.79" x2="-23.64" y2="506.79" gradientTransform="matrix(20.28, -0.01, -0.01, -20.28, 601.52, 10316.14)" xlink:href="#c"/></defs><title>comexposium</title><path class="b" d="M230.74,35h4.2V14.7h-3.78l-7.61,9.07-7.61-9.07h-3.77V35h4.19V21.31l6.8,8.2h.75l6.83-8.2Zm-36-20.35h-4.19V26.46c0,5.18,3.21,8.92,9.23,8.92s9.32-4.13,9.32-8.92V14.7h-4.19V26.16c0,3.14-1.68,5.33-5.12,5.33s-5-2.07-5-5.3ZM183.2,35h4.19V14.7H183.2Zm-9.34-8c1.83.51,2.9,1,2.9,2.16,0,1.35-1.38,2.28-3.83,2.28a12.13,12.13,0,0,1-6.29-1.91l-1,4a16.17,16.17,0,0,0,7.19,1.77c4.91,0,8.3-2.6,8.3-6.44,0-2.9-1.8-4.58-5.48-5.63l-3.77-1.08c-1.47-.42-2.22-.87-2.22-2s1.08-2,3.66-2A12.78,12.78,0,0,1,179.58,20l1.2-3.92a16.71,16.71,0,0,0-7.31-1.62c-5.6,0-8.15,2.78-8.15,6.17,0,2.75,1.59,4.64,4.67,5.45ZM147.61,24.9a6.35,6.35,0,1,1,12.7,0,6.35,6.35,0,1,1-12.7,0m-4.13,0a10.48,10.48,0,0,0,21,0,10.48,10.48,0,1,0-21,0m-8.42-6.56a3.51,3.51,0,0,1,3.72,3.74,3.54,3.54,0,0,1-3.72,3.68h-4.88V18.35ZM126,35h4.19V29.42h5.54a7.08,7.08,0,0,0,7.4-7.3c0-5.09-3.41-7.42-7.4-7.42H126Z" transform="translate(-6.89)"/><path class="c" d="M102.37,25l-9.9-12.26s-1.21-1.49,1.06-1.63,7.52,0,7.52,0a3.55,3.55,0,0,1,2.41,1.06C104.84,13.57,113.79,25,113.79,25Z" transform="translate(-6.89)"/><path class="c" d="M113.79,25,95.47,46.31a4.57,4.57,0,0,1-3.34,1.06h-7a.94.94,0,0,1-.75-.42c-.22-.31-.23-.76.32-1.5C85.82,44,102.37,25,102.37,25Z" transform="translate(-6.89)"/><g class="d"><g class="e"><rect class="f" x="89.39" y="5.48" width="26.27" height="25.1" transform="translate(5.07 69.36) rotate(-39.52)"/></g></g><g class="g"><g class="h"><rect class="i" x="81.04" y="17.66" width="35.92" height="37.06" transform="translate(2.03 90.95) rotate(-51.38)"/></g></g><path class="b" d="M115.13,24.22l-4.35-5.37s2.17-2.7,2.58-3.22a3.41,3.41,0,0,1,2.47-1.16H121a1,1,0,0,1,.92.6.91.91,0,0,1-.15,1c-1.05,1.25-6.66,8.16-6.66,8.16" transform="translate(-6.89)"/><path class="b" d="M115.13,26.42l-4.35,5.26,1.62,2.25a4.1,4.1,0,0,0,2.88,1.43h4.93a1,1,0,0,0,.78-1.58c-.79-1-5.85-7.35-5.85-7.35" transform="translate(-6.89)"/><path class="b" d="M91.73,35.35V31.66H79.63V26.75h9.91V23.07H79.63v-4.4h12.1V15H75.62V35.35Zm-23.66,0h4.19V15H68.49l-7.61,9.07L53.28,15H49.51V35.35H53.7V21.6l6.8,8.2h.75l6.83-8.2ZM30.58,25.19a6.35,6.35,0,1,1,12.7,0,6.35,6.35,0,1,1-12.7,0m-4.13,0A10.22,10.22,0,0,0,36.9,35.64,10.23,10.23,0,0,0,47.41,25.19,10.25,10.25,0,0,0,36.9,14.68,10.23,10.23,0,0,0,26.45,25.19" transform="translate(-6.89)"/><path class="b" d="M24.32,17.75c-1.37-2-3.72-3.06-6.94-3.06-6,0-10.48,3.89-10.48,10.51s4.46,10.45,10.48,10.45a12.65,12.65,0,0,0,8.36-3.29l-2-3.14a9.54,9.54,0,0,1-6.29,2.55c-3.74,0-6.23-2.4-6.23-6.56s2.49-6.62,6.08-6.62a4.21,4.21,0,0,1,3.6,1.55Z" transform="translate(-6.89)"/></svg>