<svg xmlns="http://www.w3.org/2000/svg" width="106" height="86.06" viewBox="0 0 53 43.03">
  <defs>
    <style>
      .cls-1 {
        fill: #1488c9;
        fill-rule: evenodd;
      }
    </style>
  </defs>
  <path id="Logo_Twitter" data-name="Logo Twitter" class="cls-1" d="M706.682,6324.83a32.727,32.727,0,0,0,8.009-.96,27.778,27.778,0,0,0,6.884-2.66,31.851,31.851,0,0,0,5.68-4.03,28.134,28.134,0,0,0,4.5-5.08,35.7,35.7,0,0,0,3.222-5.79,31.612,31.612,0,0,0,1.993-6.18,30.174,30.174,0,0,0,.66-6.22c0-.31-0.018-0.77-0.052-1.39a21.554,21.554,0,0,0,5.435-5.61,22.58,22.58,0,0,1-6.237,1.7,10.417,10.417,0,0,0,4.761-6.02,22.057,22.057,0,0,1-6.883,2.64,10.882,10.882,0,0,0-18.814,7.44,11.267,11.267,0,0,0,.284,2.46,30.394,30.394,0,0,1-12.5-3.34,30.937,30.937,0,0,1-9.912-8.01,10.7,10.7,0,0,0-1.475,5.48,10.58,10.58,0,0,0,1.307,5.17,10.774,10.774,0,0,0,3.532,3.85,10.913,10.913,0,0,1-4.942-1.34v0.13a10.433,10.433,0,0,0,2.484,6.9,10.78,10.78,0,0,0,6.237,3.75,10.724,10.724,0,0,1-4.891.18,10.83,10.83,0,0,0,10.144,7.55,21.294,21.294,0,0,1-13.509,4.65,20.406,20.406,0,0,1-2.587-.16,30.291,30.291,0,0,0,16.666,4.89h0Z" transform="translate(-690 -6281.81)"/>
</svg>
