<svg id="Layer_2" data-name="Layer 2" xmlns="http://www.w3.org/2000/svg" xmlns:xlink="http://www.w3.org/1999/xlink" viewBox="0 0 298.49 78.99"><defs><style>.cls-1{fill:#1d1d1b;}.cls-2{fill:#1488ca;}.cls-3{fill:url(#linear-gradient);}.cls-4{fill:url(#linear-gradient-2);}</style><linearGradient id="linear-gradient" x1="-836.57" y1="148.49" x2="-835.97" y2="150.34" gradientTransform="matrix(28.31, -9.18, -9.18, -28.31, 25067.44, -3404.35)" gradientUnits="userSpaceOnUse"><stop offset="0" stop-color="#1488ca"/><stop offset="1" stop-color="#1168ac"/></linearGradient><linearGradient id="linear-gradient-2" x1="-834.53" y1="159.74" x2="-834.53" y2="157.54" gradientTransform="matrix(33.36, 0, 0, -33.36, 27891.35, 5329.05)" xlink:href="#linear-gradient"/></defs><title>logo</title><path class="cls-1" d="M92,.36h15.84V4.47H96.6V8.73h9.9v4.11H96.6v4.41H108v4.11H92Z"/><path class="cls-1" d="M110.49,9.87h9.24v4.38h-9.24Z"/><path class="cls-1" d="M122.22,10.92v-.06A10.67,10.67,0,0,1,133.17,0a10.84,10.84,0,0,1,8.28,3.24l-2.94,3.39a7.75,7.75,0,0,0-5.37-2.37c-3.54,0-6.09,2.94-6.09,6.54v.06c0,3.6,2.49,6.6,6.09,6.6,2.4,0,3.87-1,5.52-2.46l2.94,3A10.73,10.73,0,0,1,133,21.72,10.6,10.6,0,0,1,122.22,10.92Z"/><path class="cls-1" d="M143.16,10.92v-.06a11.16,11.16,0,0,1,22.32-.06v.06a11.16,11.16,0,0,1-22.32.06Zm17.49,0v-.06a6.38,6.38,0,0,0-6.36-6.6A6.28,6.28,0,0,0,148,10.8v.06a6.38,6.38,0,0,0,6.36,6.6A6.28,6.28,0,0,0,160.65,10.92Z"/><path class="cls-1" d="M169,.36h5l5.52,8.88L185,.36h5v21H185.4V7.65l-5.91,9h-.12l-5.85-8.88V21.36H169Z"/><path class="cls-1" d="M194.43.36h5l5.52,8.88L210.45.36h5v21h-4.59V7.65l-5.91,9h-.12L199,7.74V21.36h-4.53Z"/><path class="cls-1" d="M219.87.36h15.84V4.47H224.46V8.73h9.9v4.11h-9.9v4.41h11.4v4.11h-16Z"/><path class="cls-1" d="M239.37.36H249a8.37,8.37,0,0,1,6.12,2.13,6.59,6.59,0,0,1,1.8,4.8v.06a6.52,6.52,0,0,1-4.5,6.51l5.13,7.5h-5.4l-4.5-6.72H244v6.72h-4.62Zm9.3,10.2c2.25,0,3.54-1.2,3.54-3V7.53c0-2-1.38-3-3.63-3H244v6Z"/><path class="cls-1" d="M259.53,10.92v-.06A10.67,10.67,0,0,1,270.48,0a10.84,10.84,0,0,1,8.28,3.24l-2.94,3.39a7.75,7.75,0,0,0-5.37-2.37c-3.54,0-6.09,2.94-6.09,6.54v.06c0,3.6,2.49,6.6,6.09,6.6,2.4,0,3.87-1,5.52-2.46l2.94,3a10.73,10.73,0,0,1-8.61,3.75A10.6,10.6,0,0,1,259.53,10.92Z"/><path class="cls-1" d="M282,.36h15.84V4.47H286.59V8.73h9.9v4.11h-9.9v4.41H298v4.11H282Z"/><path class="cls-2" d="M91.68,41.86V41.8c0-6.22,4.59-11.8,11.5-11.8s11.44,5.51,11.44,11.73c0,0,0,0,0,.07,0,6.22-4.59,11.79-11.5,11.79S91.68,48.08,91.68,41.86Zm21.18,0V41.8c0-5.64-4.11-10.26-9.74-10.26s-9.68,4.56-9.68,10.2v.07c0,5.64,4.11,10.26,9.74,10.26S112.86,47.5,112.86,41.86Z"/><path class="cls-2" d="M119.74,30.39h1.6l15.74,19.84V30.39h1.63V53.2h-1.27L121.37,32.93V53.2h-1.63Z"/><path class="cls-2" d="M144.83,30.39h16.23V32H146.52v9h13.07v1.56H146.52v9.16h14.69V53.2H144.83Z"/><path class="cls-2" d="M181.45,32H173.5V30.39h17.59V32h-7.95V53.2h-1.69Z"/><path class="cls-2" d="M192.79,41.86V41.8c0-6.22,4.59-11.8,11.5-11.8s11.44,5.51,11.44,11.73c0,0,0,0,0,.07,0,6.22-4.59,11.79-11.5,11.79S192.79,48.08,192.79,41.86Zm21.18,0V41.8c0-5.64-4.11-10.26-9.74-10.26s-9.68,4.56-9.68,10.2v.07c0,5.64,4.11,10.26,9.74,10.26S214,47.5,214,41.86Z"/><path class="cls-2" d="M229,41.86V41.8c0-6.22,4.59-11.8,11.5-11.8s11.44,5.51,11.44,11.73c0,0,0,0,0,.07,0,6.22-4.59,11.79-11.5,11.79S229,48.08,229,41.86Zm21.18,0V41.8c0-5.64-4.11-10.26-9.74-10.26s-9.68,4.56-9.68,10.2v.07c0,5.64,4.11,10.26,9.74,10.26S250.14,47.5,250.14,41.86Z"/><path class="cls-2" d="M257,30.39h1.6l15.74,19.84V30.39H276V53.2h-1.27L258.64,32.93V53.2H257Z"/><path class="cls-2" d="M282.1,30.39h16.23V32H283.8v9h13.07v1.56H283.8v9.16h14.69V53.2H282.1Z"/><path class="cls-3" d="M30.16,37.86a7.73,7.73,0,0,1,3.08-6.24c-2.83-9.76-4.43-19.42,1.11-31a12.21,12.21,0,0,0-2.75.67C28.18,2.62,25.41,5.12,23.15,9a16.51,16.51,0,0,0-1.57,2.7c-.17.35-.35.7-.54,1a50.81,50.81,0,0,1-5.55,7.9,40.42,40.42,0,0,1-7.33,6.11,20.38,20.38,0,0,0-1.74,1.2,12.9,12.9,0,0,0-2.58,2.14l-.37.37a12.77,12.77,0,0,0-3.29,11A13.52,13.52,0,0,0,.6,43.2l0,.1c1.62,4.34,5.29,7.77,10.91,10.21l.93.42.41.19,1.24.56a21,21,0,0,1,3.07,1.9c.33.24.64.49,1,.78l.1.08c2.28,1.63,3.38,3.69,4.77,6.3.47.88,1,1.87,1.56,2.78a15.24,15.24,0,0,0,1.07,1.82c2.52,3.67,6.47,6,10.29,6h.26c4.33-10.92,3.37-20.15,1.15-28.81h0A7.4,7.4,0,0,1,30.16,37.86Z"/><path class="cls-4" d="M69.14,27.73a37.61,37.61,0,0,0-3.05-2.21l-1.38-.87a33.8,33.8,0,0,1-3.16-2.14A42.65,42.65,0,0,1,51.25,10a30.72,30.72,0,0,0-3.13-4.57A13.61,13.61,0,0,0,38.32.58C32.7,11.59,34,20.92,36.64,30.3a6.8,6.8,0,0,1,.71,0,7.4,7.4,0,0,1,7.18,7.6,7.68,7.68,0,0,1-3.66,6.62c2.33,8.84,3.46,18.28-.71,29.51.27-.07.54-.15.8-.24A13.07,13.07,0,0,0,42.8,73a11.79,11.79,0,0,0,4.92-4.2c.36-.52.71-1.08,1.1-1.75l.07-.14c2.51-5.62,5.51-9.65,8.9-12l1.49-1,.27-.17c.61-.4,1.23-.8,1.76-1.17L62.4,52c4-2.33,7.2-4.6,9.63-8.18l.09-.16a12.75,12.75,0,0,0,.66-1.48C74.4,37.89,74.28,31.86,69.14,27.73Z"/><path class="cls-1" d="M94.41,67.91h7.83V69h-6.6v3.89h5.9v1.12h-5.9V78.8H94.41Z"/><path class="cls-1" d="M114,67.91h4.68a4.3,4.3,0,0,1,3.1,1.09,3,3,0,0,1,.84,2.15v0a3.19,3.19,0,0,1-3,3.17L123,78.8h-1.51l-3.16-4.23h-3.11V78.8H114Zm4.58,5.56c1.63,0,2.8-.84,2.8-2.24v0c0-1.34-1-2.15-2.79-2.15h-3.36v4.42Z"/><path class="cls-1" d="M138.57,67.83h1.15l5,11h-1.32l-1.28-2.88h-5.93l-1.29,2.88h-1.26Zm3,7-2.47-5.56-2.49,5.56Z"/><path class="cls-1" d="M156.17,67.91h1.15l6.86,8.73V67.91h1.2V78.8h-1l-7-8.93V78.8h-1.2Z"/><path class="cls-1" d="M177.32,73.38v0a5.49,5.49,0,0,1,5.51-5.63,5.67,5.67,0,0,1,4.25,1.73l-.84.9a4.73,4.73,0,0,0-3.42-1.49,4.27,4.27,0,0,0-4.22,4.47v0a4.3,4.3,0,0,0,4.22,4.5,4.73,4.73,0,0,0,3.52-1.57l.81.79A5.68,5.68,0,0,1,182.78,79,5.43,5.43,0,0,1,177.32,73.38Z"/><path class="cls-1" d="M198.62,67.91h7.88V69h-6.65v3.72h5.95v1.12h-5.95v3.81h6.72V78.8h-8Z"/></svg>