<svg id="Layer_2" data-name="Layer 2" xmlns="http://www.w3.org/2000/svg" xmlns:xlink="http://www.w3.org/1999/xlink" viewBox="0 0 192.62 39.03"><defs><style>.cls-1{fill:url(#linear-gradient);}.cls-2{fill:url(#linear-gradient-2);}.cls-3{fill:#1d1d1b;}.cls-4{fill:#1488ca;}</style><linearGradient id="linear-gradient" x1="-878.44" y1="151.5" x2="-878.13" y2="152.48" gradientTransform="matrix(28.31, -9.18, -9.18, -28.31, 26271.38, -3739.04)" gradientUnits="userSpaceOnUse"><stop offset="0" stop-color="#1488ca"/><stop offset="1" stop-color="#1168ac"/></linearGradient><linearGradient id="linear-gradient-2" x1="-877.35" y1="161.99" x2="-877.35" y2="160.82" gradientTransform="matrix(33.36, 0, 0, -33.36, 29294.15, 5403.44)" xlink:href="#linear-gradient"/></defs><title>Logo_small</title><path class="cls-1" d="M16,19.75a4.09,4.09,0,0,1,1.63-3.3c-1.5-5.17-2.35-10.29.59-16.4A6.47,6.47,0,0,0,16.75.4a8.72,8.72,0,0,0-4.48,4.05,8.75,8.75,0,0,0-.83,1.43c-.09.18-.18.37-.28.55a26.91,26.91,0,0,1-2.94,4.19,21.41,21.41,0,0,1-3.88,3.24,10.79,10.79,0,0,0-.92.64A6.83,6.83,0,0,0,2,15.62l-.2.19A6.77,6.77,0,0,0,.1,21.66a7.16,7.16,0,0,0,.22.91l0,.06c.86,2.3,2.8,4.12,5.78,5.41l.49.22.22.1.66.29a11.12,11.12,0,0,1,1.63,1l.52.41.05,0a8.63,8.63,0,0,1,2.53,3.34c.25.46.53,1,.82,1.47a8.07,8.07,0,0,0,.57,1A6.88,6.88,0,0,0,19,39h.14c2.29-5.78,1.79-10.67.61-15.26h0A3.92,3.92,0,0,1,16,19.75Z"/><path class="cls-2" d="M36.62,14.38A19.92,19.92,0,0,0,35,13.21l-.73-.46a17.9,17.9,0,0,1-1.67-1.13A22.59,22.59,0,0,1,27.14,5a16.27,16.27,0,0,0-1.66-2.42A7.21,7.21,0,0,0,20.3,0c-3,5.83-2.29,10.77-.89,15.74l.38,0a3.92,3.92,0,0,1,3.8,4,4.07,4.07,0,0,1-1.94,3.51c1.24,4.68,1.83,9.68-.38,15.63l.42-.13a6.92,6.92,0,0,0,1-.39,6.24,6.24,0,0,0,2.61-2.22c.19-.27.38-.57.58-.93l0-.07a14.77,14.77,0,0,1,4.72-6.34l.79-.52.14-.09.93-.62.58-.35a14.4,14.4,0,0,0,5.1-4.33l.05-.09a6.75,6.75,0,0,0,.35-.78A6.56,6.56,0,0,0,36.62,14.38Z"/><path class="cls-3" d="M51.51,4.62H74.11v5.87H58.06v6.08H72.18v5.87H58.06v6.29H74.33v5.87H51.51Z"/><path class="cls-3" d="M76.87,19.69V19.6A15.23,15.23,0,0,1,92.5,4.1c5.65,0,9,1.88,11.82,4.62l-4.2,4.84c-2.31-2.1-4.67-3.38-7.66-3.38-5.05,0-8.69,4.2-8.69,9.33v.09c0,5.14,3.55,9.42,8.69,9.42,3.42,0,5.52-1.37,7.88-3.51l4.2,4.24A15.32,15.32,0,0,1,92.24,35.1,15.13,15.13,0,0,1,76.87,19.69Z"/><path class="cls-4" d="M113.86,7.91l-5.65,1.76-.81-2.74,7.32-2.53h2.48V34.59h-3.34Z"/><path class="cls-4" d="M133.69,7.74H123.63V4.62h23.55V7.74H137.11V34.59h-3.42Z"/><path class="cls-4" d="M149.13,19.69V19.6A15.19,15.19,0,0,1,164.46,4.1c9.12,0,15.24,7.15,15.24,15.41v.09a15.19,15.19,0,0,1-15.33,15.5C155.25,35.1,149.13,28,149.13,19.69Zm27.06,0V19.6c0-6.81-5-12.37-11.82-12.37s-11.73,5.48-11.73,12.29v.09c0,6.81,5,12.37,11.82,12.37S176.19,26.5,176.19,19.69Z"/><path class="cls-4" d="M189.28,7.91l-5.65,1.76-.81-2.74,7.32-2.53h2.48V34.59h-3.34Z"/></svg>