<?xml version="1.0" encoding="utf-8"?>
<!-- Generator: Adobe Illustrator 22.1.0, SVG Export Plug-In . SVG Version: 6.00 Build 0)  -->
<svg version="1.1" id="Calque_1" xmlns="http://www.w3.org/2000/svg" xmlns:xlink="http://www.w3.org/1999/xlink" x="0px" y="0px"
	 viewBox="0 0 252.1 110.4" style="enable-background:new 0 0 252.1 110.4;" xml:space="preserve">
<style type="text/css">
	.st0{fill:url(#SVGID_1_);}
	.st1{fill:#FFFFFF;}
	.st2{fill:#353335;}
	.st3{fill:#B71234;}
</style>
<title>Fichier 1</title>
<linearGradient id="SVGID_1_" gradientUnits="userSpaceOnUse" x1="10002.6465" y1="1039.1686" x2="10318.9961" y2="1039.1686" gradientTransform="matrix(0 7.880000e-02 5.9865 -9.000000e-04 -6094.4702 -701.6995)">
	<stop  offset="0" style="stop-color:#CE6F75"/>
	<stop  offset="0.3993" style="stop-color:#C34457"/>
	<stop  offset="0.7915" style="stop-color:#BA203E"/>
	<stop  offset="1" style="stop-color:#B71234"/>
</linearGradient>
<polygon class="st0" points="1.1,110.5 1.1,85.6 251.9,85.6 251.9,110.5 "/>
<g>
	<path class="st1" d="M78.3,105.1v-14h7.4c2.7,0,4,1.7,4,3.6c0,1.8-1.1,2.9-2.4,3.2c1.5,0.2,2.7,1.7,2.7,3.4c0,2.1-1.4,3.8-4.1,3.8
		L78.3,105.1L78.3,105.1z M86.6,95.2c0-0.9-0.6-1.5-1.6-1.5h-3.7v3H85C86,96.7,86.6,96,86.6,95.2z M86.9,100.9
		c0-0.9-0.6-1.6-1.8-1.6h-3.8v3.3h3.8C86.2,102.5,86.9,101.9,86.9,100.9z"/>
	<path class="st1" d="M93.2,105.1v-14h3v14L93.2,105.1L93.2,105.1z"/>
	<path class="st1" d="M109.7,105.1l-0.9-2.4h-6l-0.9,2.4h-3.4l5.4-14h3.7l5.4,14H109.7z M105.8,94l-2.2,6h4.4L105.8,94z"/>
	<path class="st1" d="M123.4,105.1l-2.8-5h-2.2v5h-3v-14h6.6c2.9,0,4.7,1.9,4.7,4.5c0,2.5-1.6,3.8-3.1,4.2l3.1,5.3L123.4,105.1
		L123.4,105.1z M123.7,95.6c0-1.2-0.9-1.9-2.1-1.9h-3.1v3.8h3.1C122.8,97.5,123.7,96.7,123.7,95.6z"/>
	<path class="st1" d="M137.9,105.1l-2.8-5H133v5h-3v-14h6.6c2.9,0,4.7,1.9,4.7,4.5c0,2.5-1.6,3.8-3.1,4.2l3.1,5.3L137.9,105.1
		L137.9,105.1z M138.2,95.6c0-1.2-0.9-1.9-2.1-1.9H133v3.8h3.1C137.3,97.5,138.2,96.7,138.2,95.6z"/>
	<path class="st1" d="M144.5,105.1v-14h3v14L144.5,105.1L144.5,105.1z"/>
	<path class="st1" d="M154.6,105.1V93.7h-4.1v-2.6h11.2v2.6h-4.1v11.4H154.6z"/>
	<path class="st1" d="M164.1,105.1v-2.4l6.6-9h-6.6v-2.6h10.5v2.4l-6.6,9h6.8v2.6L164.1,105.1L164.1,105.1z"/>
</g>
<g>
	<path class="st2" d="M124.7,18.6h-4.8v15h-2.8v-15h-4.8v-2.4h12.4L124.7,18.6L124.7,18.6z"/>
	<path class="st2" d="M128.8,32.9c-1.1-0.4-2-1.1-2.8-1.9s-1.4-1.7-1.9-2.8c-0.4-1.1-0.7-2.2-0.7-3.4c0-1.2,0.2-2.3,0.7-3.4
		c0.4-1,1.1-2,1.9-2.8c0.8-0.8,1.7-1.4,2.8-1.9s2.2-0.7,3.4-0.7c1.2,0,2.3,0.2,3.4,0.7c1,0.4,2,1.1,2.8,1.9c0.8,0.8,1.4,1.7,1.9,2.8
		c0.4,1.1,0.7,2.2,0.7,3.4c0,1.2-0.2,2.3-0.7,3.4c-0.4,1.1-1.1,2-1.9,2.8c-0.8,0.8-1.7,1.4-2.8,1.9c-1.1,0.4-2.2,0.7-3.4,0.7
		C131,33.6,129.8,33.3,128.8,32.9z M127.9,20.6c-1.1,1.1-1.8,2.6-1.8,4.2c0,1.6,0.6,3.1,1.8,4.2c1.1,1.1,2.6,1.8,4.2,1.8
		c1.6,0,3.1-0.6,4.2-1.8c1.1-1.1,1.8-2.6,1.8-4.2c0-1.6-0.6-3.1-1.8-4.2c-1.1-1.1-2.6-1.8-4.2-1.8C130.6,18.8,129,19.5,127.9,20.6z"
		/>
</g>
<path class="st3" d="M71.5,2.1v28.2L43.8,0.1v11c2.8,3.8,4.5,8.5,4.5,13.6s-1.7,9.8-4.5,13.6v8.8h7V20.6L79,51.3V2.1H71.5z"/>
<polygon class="st3" points="108.4,40.7 108.4,47.1 81.5,47.1 81.5,2.2 108.4,2.2 108.4,8.6 88.6,8.6 88.6,20.5 104.9,20.5 
	104.9,26.9 88.4,26.9 88.4,40.7 "/>
<path class="st3" d="M23.4,2.1C11.1,2.1,1.1,12.2,1.1,24.7c0,12.5,10,22.6,22.4,22.6c12.4,0,22.4-10.1,22.4-22.6
	C45.8,12.2,35.8,2.1,23.4,2.1z M23.4,40C15,40,8.1,33.1,8.1,24.7c0-8.5,6.9-15.3,15.3-15.3c8.5,0,15.3,6.9,15.3,15.3
	C38.8,33.1,31.9,40,23.4,40z"/>
<path class="st3" d="M214.9,2.2v28.2L187.2,0.1v11c2.8,3.8,4.5,8.5,4.5,13.6c0,5.1-1.7,9.8-4.5,13.6v8.8h7.1V20.7l28.2,30.6V2.2
	H214.9z"/>
<polygon class="st3" points="251.8,40.7 251.8,47.1 224.9,47.1 224.9,2.2 251.8,2.2 251.8,8.6 232,8.6 232,20.5 248.3,20.5 
	248.3,26.9 231.8,26.9 231.8,40.7 "/>
<path class="st3" d="M166.8,2.1c-12.4,0-22.4,10.1-22.4,22.6c0,12.5,10,22.6,22.4,22.6c12.4,0,22.4-10.1,22.4-22.6
	C189.2,12.2,179.2,2.1,166.8,2.1z M166.8,40c-8.5,0-15.3-6.9-15.3-15.3c0-8.5,6.9-15.3,15.3-15.3c8.5,0,15.3,6.9,15.3,15.3
	C182.2,33.1,175.3,40,166.8,40z"/>
<g>
	<g>
		<path class="st2" d="M1.2,77.7V58.7h6c5.9,0,9.6,4.3,9.6,9.5c0,5.3-3.7,9.5-9.6,9.5L1.2,77.7L1.2,77.7z M15.2,68.2
			c0-4.4-2.8-8-7.9-8H2.9v16h4.4C12.3,76.2,15.2,72.6,15.2,68.2z"/>
		<path class="st2" d="M20.6,77.7V58.7h1.6v18.9H20.6z"/>
		<path class="st2" d="M25.9,68.2c0-5.8,4.3-9.8,9.6-9.8c3.1,0,5.4,1.2,7.1,3.2l-1.2,0.9c-1.3-1.6-3.5-2.6-5.9-2.6
			c-4.5,0-7.9,3.4-7.9,8.3c0,4.9,3.4,8.3,7.9,8.3c2.5,0,4.5-1.2,5.6-2.3v-4.5h-7.2v-1.4h8.8v6.6C41,76.8,38.5,78,35.5,78
			C30.2,78,25.9,74.1,25.9,68.2z"/>
		<path class="st2" d="M46.5,77.7V58.7h1.6v18.9H46.5z"/>
		<path class="st2" d="M57.4,77.7V60.2h-6.2v-1.5h14v1.5h-6.2v17.5H57.4z"/>
		<path class="st2" d="M80.1,77.7L78.2,73h-10l-1.9,4.7h-1.9l7.7-18.9h2l7.7,18.9H80.1z M73.2,60.5l-4.5,11.1h8.9L73.2,60.5z"/>
		<path class="st2" d="M84.4,77.7V58.7h1.6v17.5h9.2v1.5H84.4z"/>
		<path class="st2" d="M121.6,77.7V61l-6.9,16.7h-0.6L107.2,61v16.7h-1.6V58.7h2.4l6.4,15.6l6.4-15.6h2.4v18.9H121.6z"/>
		<path class="st2" d="M141.4,77.7l-1.9-4.7h-10l-1.9,4.7h-1.9l7.7-18.9h2l7.7,18.9H141.4z M134.5,60.5L130,71.5h8.9L134.5,60.5z"/>
		<path class="st2" d="M156.9,77.7l-5.3-7.8h-4.2v7.8h-1.6V58.7h7.1c3.3,0,5.8,2.1,5.8,5.5c0,3.4-2.4,5.3-5.2,5.4l5.5,7.9
			L156.9,77.7L156.9,77.7z M156.9,64.3c0-2.4-1.7-4.1-4.2-4.1h-5.3v8.1h5.3C155.2,68.4,156.9,66.7,156.9,64.3z"/>
		<path class="st2" d="M173.9,77.7l-7.8-8.9l-2.1,2.3v6.6h-1.6V58.7h1.6v10.4l9.1-10.4h2.1l-8.1,9l8.8,9.9L173.9,77.7L173.9,77.7z"
			/>
		<path class="st2" d="M178.7,77.7V58.7h12v1.5h-10.4v7h10.2v1.5h-10.2v7.5h10.4v1.5L178.7,77.7L178.7,77.7z"/>
		<path class="st2" d="M199.2,77.7V60.2H193v-1.5h14v1.5h-6.2v17.5H199.2z"/>
		<path class="st2" d="M210.1,77.7V58.7h1.6v18.9H210.1z"/>
		<path class="st2" d="M229.7,77.7l-11.9-16.3v16.3h-1.6V58.7h1.6l11.9,16v-16h1.6v18.9H229.7z"/>
		<path class="st2" d="M235,68.2c0-5.8,4.3-9.8,9.6-9.8c3.1,0,5.4,1.2,7.1,3.2l-1.2,0.9c-1.3-1.6-3.5-2.6-5.9-2.6
			c-4.5,0-7.9,3.4-7.9,8.3c0,4.9,3.4,8.3,7.9,8.3c2.5,0,4.5-1.2,5.6-2.3v-4.5H243v-1.4h8.8v6.6c-1.7,1.9-4.2,3.1-7.2,3.1
			C239.3,78,235,74.1,235,68.2z"/>
	</g>
</g>
</svg>
